<?xml version="1.0" encoding="UTF-8" standalone="no"?>
<!-- Created with Inkscape (http://www.inkscape.org/) -->

<svg
   width="580"
   height="580"
   viewBox="0 0 580.00003 579.99999"
   version="1.1"
   id="svg5"
   xml:space="preserve"
   xmlns="http://www.w3.org/2000/svg"
   xmlns:svg="http://www.w3.org/2000/svg"><defs
     id="defs2" /><g
     id="layer1"
     transform="translate(-15.256598,-9.7872447)"><path
       style="fill:#004aad;fill-opacity:1;stroke-width:1.00617"
       d="m 288.12574,556.04368 c -9.56074,-1.61095 -21.83911,-5.411 -28.32828,-8.76737 -19.75106,-10.21575 -29.73393,-22.37954 -48.47716,-59.06771 -4.88778,-9.56738 -11.04294,-20.82302 -13.67812,-25.01253 -10.03076,-15.94724 -24.2208,-27.49604 -39.55615,-32.19347 -5.82915,-1.78555 -11.39425,-2.20022 -38.96967,-2.90376 -23.773753,-0.60654 -33.916525,-1.26007 -38.863813,-2.50409 -18.732117,-4.71028 -33.920001,-18.71251 -38.35402,-35.35985 -2.52499,-9.47996 -1.9936,-15.99609 2.413195,-29.59142 6.802724,-20.98699 7.772665,-26.26319 7.849228,-42.69741 0.09611,-20.63299 -1.878472,-31.91951 -13.74102,-78.54217 -5.675248,-22.30505 -7.809347,-36.91888 -7.851772,-53.76711 -0.04398,-17.47637 1.630748,-26.35198 7.511622,-39.80886 7.102792,-16.2529 19.372172,-28.74323 34.619968,-35.24339 13.790973,-5.87911 28.657732,-7.8909 45.392422,-6.14253 23.09652,2.41302 37.82267,7.4002 69.18308,23.42964 40.09316,20.49307 53.44504,25.21132 72.04207,25.45807 22.40871,0.29732 35.24665,-7.64842 60.37883,-37.37006 15.82211,-18.711427 22.95844,-26.248006 34.68895,-36.634474 23.14689,-20.494809 45.31837,-32.126165 70.88633,-37.18758 9.34612,-1.850158 13.7009,-2.134302 26.10206,-1.703111 38.95628,1.35451 64.41619,16.310276 72.20032,42.412216 3.10238,10.403104 2.84637,21.113659 -0.98592,41.236419 -3.41754,17.9452 -3.89624,29.93384 -1.59675,39.98345 2.25263,9.84475 9.35688,24.20922 18.22824,36.85694 21.18763,30.20676 24.66394,35.47526 28.32751,42.93212 15.08524,30.70397 18.03531,69.27457 8.16642,106.7724 -7.58065,28.80358 -21.90093,55.04402 -43.64159,79.96858 -23.76867,27.24955 -51.60509,48.2668 -97.023,73.25499 -48.69901,26.79332 -80.98742,42.0505 -100.6614,47.5653 -15.64606,4.38574 -35.75567,6.39696 -46.26158,4.62677 z"
       id="path191" /><path
       style="fill:#0f0f0f;stroke:none;stroke-width:1.00617"
       d="M 245.36609,22.104832 C 151.563,35.586462 69.082582,117.37341 39.246569,215.64073 c -13.73691,45.24344 -15.564612,94.51521 -8.420221,141.27046 5.969585,39.06656 18.606685,77.50477 41.50179,108.58849 9.713431,13.1877 22.072242,26.28053 35.717832,34.46156 51.91949,31.12378 115.63122,-6.24753 170.92994,9.69495 40.5296,11.68539 76.37976,36.51104 114.27339,55.26627 25.98043,12.85772 53.72389,23.57214 82.58417,19.4036 31.40405,-4.53646 58.09505,-30.1275 74.34876,-58.73372 30.29973,-53.3296 34.75928,-121.63598 26.21662,-182.38649 -3.20158,-22.77301 -7.92808,-46.08686 -19.92966,-65.36395 C 535.52643,244.1995 500.82861,225.71521 469.1115,206.8809 436.42259,187.46887 406.88144,167.22291 381.88918,136.57144 344.54771,90.776612 313.18206,12.358119 245.36609,22.104832 m -5.76168,5.124849 c 77.29682,-10.018395 105.16512,77.553789 150.76501,127.259909 45.88992,50.02345 121.35837,63.88166 159.64956,122.29805 11.84122,18.0647 16.62246,38.57 20.29553,60.09266 10.38544,60.85384 6.50206,131.91077 -23.9734,185.54927 -15.93394,28.0443 -41.47164,53.50672 -72.42821,57.68263 -30.7549,4.1485 -60.34307,-9.30909 -87.38557,-23.6744 -32.90305,-17.47853 -65.46712,-38.29273 -100.82946,-49.37192 -36.35142,-11.38809 -71.65517,-4.197 -108.5117,-1.4106 -22.15944,1.67627 -44.85663,2.44377 -65.29908,-8.81253 C 96.809724,488.54047 83.852562,473.68177 73.70182,459.17414 20.825315,383.59971 19.603069,266.48333 56.439048,182.95875 71.987143,147.70439 95.246387,118.34649 121.48989,92.213565 155.09299,58.752499 193.99108,33.14164 239.60441,27.229681 m 8.64252,47.587586 c -36.50987,5.328216 -67.98594,26.595743 -95.06778,53.145103 -22.07012,21.63547 -41.51965,46.67619 -54.488237,76.08153 -30.724273,69.66742 -29.018527,165.80935 14.784477,228.77381 8.95654,12.87353 20.43189,25.54149 33.94208,32.55546 28.15735,14.61728 61.70859,5.49795 91.22666,2.41425 17.21014,-1.79856 35.33544,0.447 51.85515,5.85218 49.48806,16.19234 99.23731,68.19885 153.64493,58.86972 29.26743,-5.01826 52.70212,-30.46698 65.53627,-58.57558 20.82368,-45.60506 23.19653,-99.15711 14.35523,-148.65027 C 521.5313,311.26396 518.1175,297.42051 511.14394,285.2217 483.3976,236.68792 423.99752,223.36949 385.56705,187.76722 358.29124,162.49878 343.82174,124.78062 317.38329,98.919695 297.90208,79.862942 274.39729,71.001913 248.24693,74.817267 m 1.92056,4.071541 c 25.24482,-3.281903 48.07933,5.731996 66.25552,25.041772 25.78834,27.39593 40.89259,64.69344 69.14404,89.77633 37.30502,33.12159 94.3236,46.75736 121.28444,92.56905 7.37399,12.52984 10.75802,26.64319 13.3431,41.11603 8.65597,48.45682 6.02096,100.86078 -14.35524,145.48749 -12.09089,26.48083 -34.80345,51.59746 -62.65542,55.57095 -27.07319,3.86175 -53.1919,-8.60274 -76.82249,-21.57432 -27.10584,-14.87873 -54.08492,-31.03206 -83.54441,-39.54729 -45.25994,-13.08439 -98.28568,18.33248 -140.20096,-9.69811 -10.4757,-7.00449 -19.24883,-17.37943 -26.66219,-27.97577 C 72.103241,366.97513 72.338509,269.22546 104.4526,200.88113 c 13.1568,-27.99791 32.85696,-52.43454 54.48824,-72.8808 26.2387,-24.80246 56.34158,-44.578216 91.22665,-49.111522 m 12.48365,47.588112 C 154.15576,142.6914 88.135509,306.30157 156.69858,403.29851 c 6.86601,9.71287 15.18108,19.24019 25.28899,24.90788 33.63479,18.8575 73.9272,-5.15427 109.47199,6.4257 38.60808,12.57728 77.69918,52.90368 120.03511,46.23023 62.05717,-9.78246 72.92082,-102.49489 63.56673,-156.6331 -2.23265,-12.92414 -5.05876,-25.79768 -11.79801,-36.899 -23.07458,-38.00492 -70.5288,-46.3325 -99.78279,-77.0019 -30.65696,-32.14219 -49.4218,-91.53377 -100.82946,-83.8514 m 0,4.06944 c 18.01774,-2.3647 35.95867,3.7036 48.97431,17.63772 20.1294,21.54902 32.88865,50.38401 54.73599,70.13024 35.77333,32.33512 93.01762,42.92408 103.70746,99.58935 10.12136,53.65326 3.36963,149.77622 -60.49479,158.88816 -37.57102,5.35984 -72.97368,-29.62252 -106.59119,-42.55615 -15.91281,-6.12207 -32.06665,-9.33123 -48.97431,-7.56429 -21.61207,2.25716 -46.34986,8.94853 -67.21964,-0.66945 -11.52528,-5.31135 -20.81312,-16.14595 -28.16983,-26.92046 -49.6369,-72.69631 -22.93246,-177.99341 35.85208,-232.36883 19.73953,-18.25868 42.16208,-32.74945 68.17992,-36.16629 z"
       id="path193" /></g></svg>
